<?xml version="1.0" encoding="UTF-8" standalone="no"?>
<svg width="92px" height="79px" viewBox="0 0 92 79" version="1.1" xmlns="http://www.w3.org/2000/svg" xmlns:xlink="http://www.w3.org/1999/xlink">
    <!-- Generator: Sketch 40 (33762) - http://www.bohemiancoding.com/sketch -->
    <title>medium</title>
    <desc>Created with Sketch.</desc>
    <defs></defs>
    <g id="Page-1" stroke="none" stroke-width="1" fill="none" fill-rule="evenodd">
        <g id="medium">
            <path d="M11.9753,54.7949 L5.036,56.6485 C4.941,56.2565 4.8512,55.8617 4.7668,55.4646 C4.2186,52.8853 3.9188,50.3109 3.8515,47.7665 L11.0447,47.7665 C11.0341,47.4123 11.0286,47.0568 11.0286,46.7 C11.0286,46.488 11.0307,46.2766 11.0345,46.0655 L3.841,46.0655 C3.8856,42.9106 4.2861,39.8108 5.011,36.8145 L11.9526,38.6755 C12.0341,38.3306 12.1209,37.9856 12.2133,37.641 C12.2682,37.4362 12.325,37.2324 12.3833,37.0295 L5.4445,35.169 C6.303,32.1593 7.4917,29.2661 8.9775,26.5405 L15.2,30.1359 C15.368,29.8239 15.5411,29.5133 15.7196,29.2044 C15.8256,29.0209 15.9333,28.8388 16.0421,28.658 L9.8215,25.064 C11.4192,22.3939 13.3095,19.9015 15.459,17.6385 L20.5385,22.7226 C20.7816,22.4648 21.0292,22.2096 21.2816,21.9574 C21.4316,21.8076 21.5827,21.6596 21.7347,21.5131 L16.6555,16.4285 C18.8745,14.2734 21.3411,12.3521 24.0235,10.714 L27.6137,16.9418 C27.9153,16.7556 28.2206,16.5733 28.5298,16.395 C28.7135,16.2891 28.8978,16.1853 29.0826,16.0831 L25.4935,9.857 C28.173,8.3668 31.0501,7.1524 34.0955,6.2595 L35.9493,13.201 C36.2888,13.0993 36.6309,13.0022 36.9756,12.9102 C37.1804,12.8555 37.3853,12.8029 37.5902,12.7521 L35.737,5.8135 C36.2323,5.6895 36.7319,5.5739 37.2354,5.4668 C39.8512,4.9108 42.4619,4.6106 45.0415,4.549 L45.0415,11.7415 C45.36,11.7329 45.6795,11.7286 46,11.7286 C46.2481,11.7286 46.4956,11.7309 46.7425,11.7361 L46.7425,4.543 C49.8971,4.5957 52.9958,5.0038 55.9905,5.7365 L54.1297,12.6774 C54.4396,12.7516 54.7494,12.8303 55.059,12.9133 C55.2987,12.9775 55.5373,13.0439 55.7745,13.1128 L57.635,6.1745 C60.6422,7.0407 63.5321,8.2367 66.254,9.7295 L62.6592,15.9512 C62.9393,16.1031 63.2181,16.2592 63.4956,16.4196 C63.7104,16.5437 63.9236,16.6696 64.1348,16.7975 L67.729,10.577 C70.395,12.1813 72.8823,14.078 75.14,16.2335 L70.056,21.3126 C70.2872,21.5318 70.516,21.7549 70.7426,21.9816 C70.918,22.1572 71.0913,22.3339 71.2621,22.5122 L76.3465,17.433 C78.4958,19.6573 80.4112,22.1287 82.0425,24.8155 L75.815,28.4056 C75.9815,28.6773 76.1449,28.9521 76.305,29.2298 C76.4289,29.4448 76.5505,29.6605 76.6694,29.877 L82.896,26.2875 C84.3791,28.9705 85.5857,31.851 86.471,34.899 L79.53,36.7528 C79.6205,37.0583 79.7071,37.3659 79.7898,37.6756 C79.8538,37.9154 79.9155,38.1551 79.9742,38.395 L86.9125,36.542 C87.0266,37.003 87.1337,37.4674 87.2332,37.9354 C87.8125,40.6607 88.1141,43.3806 88.1575,46.0655 L80.9655,46.0655 C80.9693,46.2766 80.9714,46.488 80.9714,46.7 C80.9714,47.0568 80.9659,47.4123 80.9553,47.7665 L88.1505,47.7665 C88.0734,50.9199 87.6414,54.0157 86.8855,57.0055 L79.9454,55.1445 C79.8944,55.3494 79.8416,55.5543 79.7867,55.759 C79.6943,56.1037 79.5969,56.4458 79.4949,56.7852 L86.435,58.646 C85.5459,61.646 84.3279,64.527 82.814,67.238 L76.5928,63.6433 C76.4904,63.8279 76.3864,64.0121 76.2804,64.1956 C76.1053,64.4987 75.9262,64.7982 75.7435,65.094 L85.213,70.5565 C91.0868,60.9056 93.4309,49.08 90.8964,37.1567 C85.6257,12.3607 61.2526,-3.4671 36.4567,1.8036 C11.6607,7.0743 -4.1671,31.4474 1.1036,56.2433 C2.1824,61.3187 4.0617,66.0186 6.581,70.2385 L16.0125,64.7105 C15.9053,64.5318 15.7995,64.3515 15.695,64.1702 C15.5349,63.8924 15.379,63.6134 15.2273,63.3332 L9.0005,66.923 C7.5316,64.2329 6.3394,61.3466 5.4695,58.2935 L12.409,56.4399 C12.3403,56.2027 12.2742,55.9641 12.2102,55.7244 C12.1275,55.4147 12.0492,55.1049 11.9753,54.7949 L11.9753,54.7949 L11.9753,54.7949 Z" id="Shape" fill="#000000"></path>
            <text id="MEDIUM" font-family="Roboto-Medium, Roboto" font-size="16" font-weight="400" fill="#4A4A4A">
                <tspan x="14.5758251" y="78">MEDIUM</tspan>
            </text>
            <path d="M50.5343573,50.1680454 C48.7709573,50.5671454 47.0179573,49.4611454 46.6189573,47.6977454 C46.2198573,45.9344454 47.3257573,44.1814454 49.0890573,43.7824454 C50.8524573,43.3833454 52.6054573,44.4892454 53.0045573,46.2526454 C53.4036573,48.0159454 52.2976573,49.7689454 50.5343573,50.1680454 L50.5343573,50.1680454 L50.5343573,50.1680454 Z M50.9878573,52.0899454 C53.8092573,51.4513454 55.5787573,48.6466454 54.9401573,45.8252454 C53.9859573,41.6088454 40.6470573,8.42504537 40.6470573,8.42504537 C40.6470573,8.42504537 43.7689573,43.9211454 44.7231573,48.1375454 C45.3617573,50.9589454 48.1664573,52.7284454 50.9878573,52.0899454 L50.9878573,52.0899454 L50.9878573,52.0899454 Z" id="Shape" fill="#F6A623" transform="translate(47.858790, 30.322660) rotate(13.000000) translate(-47.858790, -30.322660) "></path>
        </g>
    </g>
</svg>